<svg xmlns="http://www.w3.org/2000/svg" viewBox="0 0 1080 1080"><defs><style>.cls-1{font-size:169.23px;font-family:GoodTimingRg-Bold, Good Timing;font-weight:700;}.cls-1,.cls-2{fill:#ef1d41;}</style></defs><g id="Camada_2" data-name="Camada 2"><text class="cls-1" transform="translate(194.26 771.8)">LINEUP</text><polygon class="cls-2" points="527.99 348.06 527.99 261.32 392.91 396.38 392.91 471.8 527.99 606.87 527.99 520.13 441.95 434.09 527.99 348.06"/><polygon class="cls-2" points="552.01 261.32 552.01 348.06 638.05 434.09 552.01 520.13 552.01 606.87 687.09 471.8 687.09 396.38 552.01 261.32"/><rect class="cls-2" x="509.33" y="403.43" width="61.34" height="61.34" transform="translate(-148.79 508.98) rotate(-45)"/><text class="cls-1" transform="translate(194.26 771.8)">LINEUP</text><polygon class="cls-2" points="527.99 348.06 527.99 261.32 392.91 396.38 392.91 471.8 527.99 606.87 527.99 520.13 441.95 434.09 527.99 348.06"/><polygon class="cls-2" points="552.01 261.32 552.01 348.06 638.05 434.09 552.01 520.13 552.01 606.87 687.09 471.8 687.09 396.38 552.01 261.32"/><rect class="cls-2" x="509.33" y="403.43" width="61.34" height="61.34" transform="translate(-148.79 508.98) rotate(-45)"/></g></svg>