<?xml version="1.0" standalone="no"?>
<!DOCTYPE svg PUBLIC "-//W3C//DTD SVG 20010904//EN"
 "http://www.w3.org/TR/2001/REC-SVG-20010904/DTD/svg10.dtd">
<svg version="1.0" xmlns="http://www.w3.org/2000/svg"
 width="4501.000000pt" height="4500.000000pt" viewBox="0 0 4501.000000 4500.000000"
 preserveAspectRatio="xMidYMid meet">

<g transform="translate(0.000000,4500.000000) scale(0.100000,-0.100000)"
fill="#000000" stroke="none">
<path d="M19187 31302 l-2807 -2807 0 -1580 0 -1580 2815 -2815 2815 -2815 0
1810 0 1810 -1792 1792 -1793 1793 1793 1793 1792 1792 0 1808 c0 994 -3 1807
-8 1807 -4 0 -1270 -1263 -2815 -2808z"/>
<path d="M23010 32300 l0 -1815 1787 -1787 1788 -1788 -1788 -1788 -1787
-1787 0 -1810 0 -1810 2815 2815 2815 2815 0 1570 0 1570 -2815 2815 -2815
2815 0 -1815z"/>
<path d="M21600 27815 l-905 -905 900 -900 c495 -495 904 -900 910 -900 13 0
1805 1792 1805 1805 0 10 -1790 1805 -1800 1805 -3 0 -412 -407 -910 -905z"/>
<path d="M8490 15135 l0 -2295 2015 0 2015 0 0 595 0 595 -1395 0 -1395 0 0
1700 0 1700 -620 0 -620 0 0 -2295z"/>
<path d="M13050 15135 l0 -2295 615 0 615 0 0 2295 0 2295 -615 0 -615 0 0
-2295z"/>
<path d="M15508 17420 c-80 -10 -168 -35 -222 -62 -60 -31 -140 -111 -169
-172 -60 -122 -57 9 -57 -2263 l0 -2083 600 0 600 0 2 1465 3 1464 1215 -1312
c668 -721 1248 -1344 1287 -1383 137 -136 265 -203 425 -224 98 -13 417 -12
498 1 130 20 235 91 286 191 56 111 54 -7 54 2281 l0 2107 -595 0 -595 0 -2
-1332 -3 -1332 -1100 1185 c-605 651 -1127 1210 -1160 1242 -117 113 -244 181
-400 213 -83 18 -562 28 -667 14z"/>
<path d="M20800 15135 l0 -2295 2200 0 2200 0 0 595 0 595 -1585 0 -1585 0 2
1108 3 1107 1583 3 1582 2 0 590 0 590 -2200 0 -2200 0 0 -2295z"/>
<path d="M25880 16113 c0 -816 4 -1371 10 -1458 37 -486 222 -906 541 -1224
304 -304 703 -494 1199 -568 134 -20 1333 -31 1555 -14 417 32 770 148 1080
356 275 184 473 411 620 710 108 218 171 447 194 705 7 73 11 601 11 1463 l0
1347 -620 0 -619 0 -4 -1337 -3 -1338 -22 -83 c-88 -332 -325 -558 -654 -626
-66 -14 -168 -16 -680 -16 -548 0 -611 2 -693 19 -161 33 -289 99 -408 211
-115 107 -186 232 -235 410 l-27 95 -3 1333 -3 1332 -619 0 -620 0 0 -1317z"/>
<path d="M31820 15135 l0 -2295 615 0 615 0 0 1705 0 1706 978 -3 c919 -3 980
-4 1032 -22 214 -72 354 -228 396 -441 53 -272 -68 -536 -298 -650 -133 -65
-128 -65 -985 -65 l-773 0 0 -545 0 -545 819 0 c908 0 948 2 1196 65 662 166
1114 636 1247 1297 20 99 23 143 23 353 0 270 -11 353 -72 555 -171 568 -621
976 -1234 1120 -239 56 -157 54 -1926 57 l-1633 4 0 -2296z"/>
<path d="M22440 15140 l0 -490 1355 0 1355 0 0 490 0 490 -1355 0 -1355 0 0
-490z"/>
</g>
</svg>
